<?xml version="1.0" encoding="UTF-8" standalone="no"?>
<!-- Created with Inkscape (http://www.inkscape.org/) -->

<svg
   xmlns:dc="http://purl.org/dc/elements/1.1/"
   xmlns:cc="http://creativecommons.org/ns#"
   xmlns:rdf="http://www.w3.org/1999/02/22-rdf-syntax-ns#"
   xmlns:svg="http://www.w3.org/2000/svg"
   xmlns="http://www.w3.org/2000/svg"
   xmlns:sodipodi="http://sodipodi.sourceforge.net/DTD/sodipodi-0.dtd"
   xmlns:inkscape="http://www.inkscape.org/namespaces/inkscape"
   width="32"
   height="32"
   id="svg2"
   version="1.1"
   inkscape:version="0.48.2 r9819"
   sodipodi:docname="grass.svg"
   inkscape:export-filename="/home/johnicholas/Desktop/terrain_rpg/grass.png"
   inkscape:export-xdpi="90"
   inkscape:export-ydpi="90">
  <defs
     id="defs4" />
  <sodipodi:namedview
     id="base"
     pagecolor="#ffffff"
     bordercolor="#666666"
     borderopacity="1.0"
     inkscape:pageopacity="0.0"
     inkscape:pageshadow="2"
     inkscape:zoom="7.6572776"
     inkscape:cx="2.4404333"
     inkscape:cy="8.7478808"
     inkscape:document-units="px"
     inkscape:current-layer="layer1"
     showgrid="false"
     inkscape:window-width="1024"
     inkscape:window-height="744"
     inkscape:window-x="0"
     inkscape:window-y="24"
     inkscape:window-maximized="1" />
  <metadata
     id="metadata7">
    <rdf:RDF>
      <cc:Work
         rdf:about="">
        <dc:format>image/svg+xml</dc:format>
        <dc:type
           rdf:resource="http://purl.org/dc/dcmitype/StillImage" />
        <dc:title></dc:title>
      </cc:Work>
    </rdf:RDF>
  </metadata>
  <g
     inkscape:label="Layer 1"
     inkscape:groupmode="layer"
     id="layer1"
     transform="translate(0,-1020.3622)">
    <g
       id="g2991">
      <path
         sodipodi:nodetypes="ccccc"
         transform="translate(0,1020.3622)"
         inkscape:connector-curvature="0"
         id="path2985"
         d="M -174.28571,-873.71429 C -68.571429,-645.14286 -94.285714,-548 -94.285714,-548 l 2.857143,2.85714 42.857142,2.85715 c 3.573573,-175.44524 -81.829801,-223.78056 -125.714281,-331.42858 z"
         style="fill:#008000;stroke:#000000;stroke-width:1px;stroke-linecap:butt;stroke-linejoin:miter;stroke-opacity:1" />
      <path
         style="fill:#008000;stroke:#000000;stroke-width:1px;stroke-linecap:butt;stroke-linejoin:miter;stroke-opacity:1"
         d="M 42.965867,149.50505 C -62.748419,378.07648 -37.034129,475.21934 -37.034129,475.21934 l -2.85714,2.85714 -42.85715,2.85715 C -86.321989,305.48839 -0.91861257,257.15307 42.965867,149.50505 z"
         id="path2987"
         inkscape:connector-curvature="0"
         sodipodi:nodetypes="ccccc" />
      <path
         sodipodi:nodetypes="ccccc"
         inkscape:connector-curvature="0"
         id="path2989"
         d="M -34.17699,63.790764 C -77.034133,300.93362 -51.319843,475.21934 -51.319843,475.21934 l -2.85714,2.85714 -20.000007,5.71429 c -18.699152,-164.99155 -3.884479,-312.35199 40,-420.000006 z"
         style="fill:#008000;stroke:#000000;stroke-width:1px;stroke-linecap:butt;stroke-linejoin:miter;stroke-opacity:1" />
    </g>
    <rect
       style="fill:#00ff00;stroke:#000000;stroke-width:0.11085864"
       id="rect3060"
       width="52.147854"
       height="59.252983"
       x="-10.708767"
       y="1008.8304"
       rx="22.487034"
       ry="26.587877" />
    <g
       id="g3020"
       transform="translate(-3.6696365,-2.8340315)">
      <g
         transform="matrix(0.04242604,0,0,0.04242604,30.193218,1029.4585)"
         id="g2996">
        <path
           sodipodi:nodetypes="ccccc"
           transform="translate(0,1020.3622)"
           inkscape:connector-curvature="0"
           id="path2998"
           d="M -174.28571,-873.71429 C -68.571429,-645.14286 -94.285714,-548 -94.285714,-548 l 2.857143,2.85714 42.857142,2.85715 c 3.573573,-175.44524 -81.829801,-223.78056 -125.714281,-331.42858 z"
           style="fill:#008000;stroke:#000000;stroke-width:1px;stroke-linecap:butt;stroke-linejoin:miter;stroke-opacity:1" />
        <path
           style="fill:#008000;stroke:#000000;stroke-width:1px;stroke-linecap:butt;stroke-linejoin:miter;stroke-opacity:1"
           d="M 42.965867,149.50505 C -62.748419,378.07648 -37.034129,475.21934 -37.034129,475.21934 l -2.85714,2.85714 -42.85715,2.85715 C -86.321989,305.48839 -0.91861257,257.15307 42.965867,149.50505 z"
           id="path3000"
           inkscape:connector-curvature="0"
           sodipodi:nodetypes="ccccc" />
        <path
           sodipodi:nodetypes="ccccc"
           inkscape:connector-curvature="0"
           id="path3002"
           d="M -34.17699,63.790764 C -77.034133,300.93362 -51.319843,475.21934 -51.319843,475.21934 l -2.85714,2.85714 -20.000007,5.71429 c -18.699152,-164.99155 -3.884479,-312.35199 40,-420.000006 z"
           style="fill:#008000;stroke:#000000;stroke-width:1px;stroke-linecap:butt;stroke-linejoin:miter;stroke-opacity:1" />
      </g>
      <g
         id="g3004"
         transform="matrix(0.04242604,0,0,0.04242604,11.126389,1025.1489)">
        <path
           style="fill:#008000;stroke:#000000;stroke-width:1px;stroke-linecap:butt;stroke-linejoin:miter;stroke-opacity:1"
           d="M -174.28571,-873.71429 C -68.571429,-645.14286 -94.285714,-548 -94.285714,-548 l 2.857143,2.85714 42.857142,2.85715 c 3.573573,-175.44524 -81.829801,-223.78056 -125.714281,-331.42858 z"
           id="path3006"
           inkscape:connector-curvature="0"
           transform="translate(0,1020.3622)"
           sodipodi:nodetypes="ccccc" />
        <path
           sodipodi:nodetypes="ccccc"
           inkscape:connector-curvature="0"
           id="path3008"
           d="M 42.965867,149.50505 C -62.748419,378.07648 -37.034129,475.21934 -37.034129,475.21934 l -2.85714,2.85714 -42.85715,2.85715 C -86.321989,305.48839 -0.91861257,257.15307 42.965867,149.50505 z"
           style="fill:#008000;stroke:#000000;stroke-width:1px;stroke-linecap:butt;stroke-linejoin:miter;stroke-opacity:1" />
        <path
           style="fill:#008000;stroke:#000000;stroke-width:1px;stroke-linecap:butt;stroke-linejoin:miter;stroke-opacity:1"
           d="M -34.17699,63.790764 C -77.034133,300.93362 -51.319843,475.21934 -51.319843,475.21934 l -2.85714,2.85714 -20.000007,5.71429 c -18.699152,-164.99155 -3.884479,-312.35199 40,-420.000006 z"
           id="path3010"
           inkscape:connector-curvature="0"
           sodipodi:nodetypes="ccccc" />
      </g>
      <g
         transform="matrix(0.04242604,0,0,0.04242604,22.749319,1011.4365)"
         id="g3012">
        <path
           sodipodi:nodetypes="ccccc"
           transform="translate(0,1020.3622)"
           inkscape:connector-curvature="0"
           id="path3014"
           d="M -174.28571,-873.71429 C -68.571429,-645.14286 -94.285714,-548 -94.285714,-548 l 2.857143,2.85714 42.857142,2.85715 c 3.573573,-175.44524 -81.829801,-223.78056 -125.714281,-331.42858 z"
           style="fill:#008000;stroke:#000000;stroke-width:1px;stroke-linecap:butt;stroke-linejoin:miter;stroke-opacity:1" />
        <path
           style="fill:#008000;stroke:#000000;stroke-width:1px;stroke-linecap:butt;stroke-linejoin:miter;stroke-opacity:1"
           d="M 42.965867,149.50505 C -62.748419,378.07648 -37.034129,475.21934 -37.034129,475.21934 l -2.85714,2.85714 -42.85715,2.85715 C -86.321989,305.48839 -0.91861257,257.15307 42.965867,149.50505 z"
           id="path3016"
           inkscape:connector-curvature="0"
           sodipodi:nodetypes="ccccc" />
        <path
           sodipodi:nodetypes="ccccc"
           inkscape:connector-curvature="0"
           id="path3018"
           d="M -34.17699,63.790764 C -77.034133,300.93362 -51.319843,475.21934 -51.319843,475.21934 l -2.85714,2.85714 -20.000007,5.71429 c -18.699152,-164.99155 -3.884479,-312.35199 40,-420.000006 z"
           style="fill:#008000;stroke:#000000;stroke-width:1px;stroke-linecap:butt;stroke-linejoin:miter;stroke-opacity:1" />
      </g>
    </g>
    <g
       id="g3034"
       transform="translate(-3.6696365,33.132006)">
      <g
         id="g3036"
         transform="matrix(0.04242604,0,0,0.04242604,30.193218,1029.4585)">
        <path
           style="fill:#008000;stroke:#000000;stroke-width:1px;stroke-linecap:butt;stroke-linejoin:miter;stroke-opacity:1"
           d="M -174.28571,-873.71429 C -68.571429,-645.14286 -94.285714,-548 -94.285714,-548 l 2.857143,2.85714 42.857142,2.85715 c 3.573573,-175.44524 -81.829801,-223.78056 -125.714281,-331.42858 z"
           id="path3038"
           inkscape:connector-curvature="0"
           transform="translate(0,1020.3622)"
           sodipodi:nodetypes="ccccc" />
        <path
           sodipodi:nodetypes="ccccc"
           inkscape:connector-curvature="0"
           id="path3040"
           d="M 42.965867,149.50505 C -62.748419,378.07648 -37.034129,475.21934 -37.034129,475.21934 l -2.85714,2.85714 -42.85715,2.85715 C -86.321989,305.48839 -0.91861257,257.15307 42.965867,149.50505 z"
           style="fill:#008000;stroke:#000000;stroke-width:1px;stroke-linecap:butt;stroke-linejoin:miter;stroke-opacity:1" />
        <path
           style="fill:#008000;stroke:#000000;stroke-width:1px;stroke-linecap:butt;stroke-linejoin:miter;stroke-opacity:1"
           d="M -34.17699,63.790764 C -77.034133,300.93362 -51.319843,475.21934 -51.319843,475.21934 l -2.85714,2.85714 -20.000007,5.71429 c -18.699152,-164.99155 -3.884479,-312.35199 40,-420.000006 z"
           id="path3042"
           inkscape:connector-curvature="0"
           sodipodi:nodetypes="ccccc" />
      </g>
      <g
         transform="matrix(0.04242604,0,0,0.04242604,11.126389,1025.1489)"
         id="g3044">
        <path
           sodipodi:nodetypes="ccccc"
           transform="translate(0,1020.3622)"
           inkscape:connector-curvature="0"
           id="path3046"
           d="M -174.28571,-873.71429 C -68.571429,-645.14286 -94.285714,-548 -94.285714,-548 l 2.857143,2.85714 42.857142,2.85715 c 3.573573,-175.44524 -81.829801,-223.78056 -125.714281,-331.42858 z"
           style="fill:#008000;stroke:#000000;stroke-width:1px;stroke-linecap:butt;stroke-linejoin:miter;stroke-opacity:1" />
        <path
           style="fill:#008000;stroke:#000000;stroke-width:1px;stroke-linecap:butt;stroke-linejoin:miter;stroke-opacity:1"
           d="M 42.965867,149.50505 C -62.748419,378.07648 -37.034129,475.21934 -37.034129,475.21934 l -2.85714,2.85714 -42.85715,2.85715 C -86.321989,305.48839 -0.91861257,257.15307 42.965867,149.50505 z"
           id="path3048"
           inkscape:connector-curvature="0"
           sodipodi:nodetypes="ccccc" />
        <path
           sodipodi:nodetypes="ccccc"
           inkscape:connector-curvature="0"
           id="path3050"
           d="M -34.17699,63.790764 C -77.034133,300.93362 -51.319843,475.21934 -51.319843,475.21934 l -2.85714,2.85714 -20.000007,5.71429 c -18.699152,-164.99155 -3.884479,-312.35199 40,-420.000006 z"
           style="fill:#008000;stroke:#000000;stroke-width:1px;stroke-linecap:butt;stroke-linejoin:miter;stroke-opacity:1" />
      </g>
      <g
         id="g3052"
         transform="matrix(0.04242604,0,0,0.04242604,22.749319,1011.4365)">
        <path
           style="fill:#008000;stroke:#000000;stroke-width:1px;stroke-linecap:butt;stroke-linejoin:miter;stroke-opacity:1"
           d="M -174.28571,-873.71429 C -68.571429,-645.14286 -94.285714,-548 -94.285714,-548 l 2.857143,2.85714 42.857142,2.85715 c 3.573573,-175.44524 -81.829801,-223.78056 -125.714281,-331.42858 z"
           id="path3054"
           inkscape:connector-curvature="0"
           transform="translate(0,1020.3622)"
           sodipodi:nodetypes="ccccc" />
        <path
           sodipodi:nodetypes="ccccc"
           inkscape:connector-curvature="0"
           id="path3056"
           d="M 42.965867,149.50505 C -62.748419,378.07648 -37.034129,475.21934 -37.034129,475.21934 l -2.85714,2.85714 -42.85715,2.85715 C -86.321989,305.48839 -0.91861257,257.15307 42.965867,149.50505 z"
           style="fill:#008000;stroke:#000000;stroke-width:1px;stroke-linecap:butt;stroke-linejoin:miter;stroke-opacity:1" />
        <path
           style="fill:#008000;stroke:#000000;stroke-width:1px;stroke-linecap:butt;stroke-linejoin:miter;stroke-opacity:1"
           d="M -34.17699,63.790764 C -77.034133,300.93362 -51.319843,475.21934 -51.319843,475.21934 l -2.85714,2.85714 -20.000007,5.71429 c -18.699152,-164.99155 -3.884479,-312.35199 40,-420.000006 z"
           id="path3058"
           inkscape:connector-curvature="0"
           sodipodi:nodetypes="ccccc" />
      </g>
    </g>
  </g>
</svg>
