<?xml version="1.0" encoding="UTF-8" standalone="no"?>
<!-- Created with Inkscape (http://www.inkscape.org/) -->

<svg
   xmlns:dc="http://purl.org/dc/elements/1.1/"
   xmlns:cc="http://creativecommons.org/ns#"
   xmlns:rdf="http://www.w3.org/1999/02/22-rdf-syntax-ns#"
   xmlns:svg="http://www.w3.org/2000/svg"
   xmlns="http://www.w3.org/2000/svg"
   xmlns:sodipodi="http://sodipodi.sourceforge.net/DTD/sodipodi-0.dtd"
   xmlns:inkscape="http://www.inkscape.org/namespaces/inkscape"
   width="32"
   height="32"
   id="svg2"
   version="1.1"
   inkscape:version="0.48.2 r9819"
   sodipodi:docname="New document 1">
  <defs
     id="defs4" />
  <sodipodi:namedview
     id="base"
     pagecolor="#ffffff"
     bordercolor="#666666"
     borderopacity="1.0"
     inkscape:pageopacity="0.0"
     inkscape:pageshadow="2"
     inkscape:zoom="11.2"
     inkscape:cx="10.094353"
     inkscape:cy="17.732407"
     inkscape:document-units="px"
     inkscape:current-layer="layer1"
     showgrid="false"
     showguides="true"
     inkscape:guide-bbox="true"
     inkscape:window-width="1091"
     inkscape:window-height="725"
     inkscape:window-x="749"
     inkscape:window-y="167"
     inkscape:window-maximized="0" />
  <metadata
     id="metadata7">
    <rdf:RDF>
      <cc:Work
         rdf:about="">
        <dc:format>image/svg+xml</dc:format>
        <dc:type
           rdf:resource="http://purl.org/dc/dcmitype/StillImage" />
        <dc:title></dc:title>
      </cc:Work>
    </rdf:RDF>
  </metadata>
  <g
     inkscape:label="Layer 1"
     inkscape:groupmode="layer"
     id="layer1"
     transform="translate(0,-1020.3622)">
    <path
       style="fill:#cccccc;fill-opacity:1;stroke:#000000;stroke-width:0.68778956;stroke-linejoin:round;stroke-miterlimit:4;stroke-opacity:0.96803655;stroke-dasharray:none"
       d="m 2.1222413,1038.9669 c 0.031995,5.6734 7.2214664,12.0806 14.7253617,10.0892 1.556834,-0.4132 5.972113,2.1586 5.240605,-1.1186 0.771613,0.9413 2.126852,1.944 3.482338,1.4758 2.023731,-0.699 1.983803,-2.0284 2.681425,-3.7277 1.912274,-0.2902 3.234627,-1.1549 3.234627,-3.1027 0,-0.5853 -0.147114,-1.1372 -0.40746,-1.6231 -0.606063,-1.131 -1.036501,-1.1001 -2.465098,-1.1894 1.467162,0.4891 3.603829,-2.5291 1.793578,-4.2203"
       id="path3755"
       inkscape:connector-curvature="0"
       sodipodi:nodetypes="cscscsscc" />
    <path
       style="fill:#cccccc;fill-opacity:1;stroke:#000000;stroke-width:0.84338456;stroke-linejoin:round;stroke-miterlimit:4;stroke-opacity:0.96803655;stroke-dasharray:none"
       d="m 29.978694,1036.276 c 2.06689,-1.8486 0.356807,-5.8925 -1.992586,-5.032 -0.429571,0.1574 -0.723609,0.096 -1.009651,0.286 1.104777,-2.0976 0.476034,-1.2985 0.476034,-1.9378 0,-1.6519 -1.62837,-2.6786 -3.42399,-2.6786 -1.471724,0 -2.974152,1.3461 -3.194658,2.4771 -0.502629,-0.3697 0.419377,-3.3699 -3.717076,-4.3176 -3.866519,-0.377 -5.694448,3.8607 -6.664095,3.2379 -0.301188,-0.2555 -1.6394755,-0.9095 -3.4110698,-1.0402 -2.3765403,-0.1753 -4.3148004,1.659 -4.3148004,3.7054 0,1.1818 0.6442721,2.2344 1.5403277,2.7287 -1.7302248,0.094 -3.1502752,0.271 -3.26764208,2.4945 -0.055804,1.0572 -0.11689576,2.2713 1.15783958,3.5708 -0.6693613,0.4233 -1.0714745,1.0111 -1.0714745,1.6524 0,1.4547 0.972513,2.8125 3.5243821,2.8125"
       id="path3759"
       inkscape:connector-curvature="0"
       sodipodi:nodetypes="cscsscccsscscsc" />
    <path
       style="fill:#cccccc;fill-opacity:1;stroke:#000000;stroke-width:0.7868098;stroke-linejoin:round;stroke-miterlimit:4;stroke-opacity:0.96803655"
       d="m 4.436714,1044.0514 c -0.4996895,0.4648 -0.803072,1.0763 -0.803072,1.7462 0,1.4546 1.4306889,2.6339 3.1955325,2.6339 0.9868426,0 1.8692046,-0.3687 2.4553776,-0.9481"
       id="path3765"
       inkscape:connector-curvature="0"
       sodipodi:nodetypes="cssc" />
  </g>
</svg>
