<?xml version="1.0" encoding="UTF-8" standalone="no"?>
<!-- Created with Inkscape (http://www.inkscape.org/) -->

<svg
   xmlns:dc="http://purl.org/dc/elements/1.1/"
   xmlns:cc="http://creativecommons.org/ns#"
   xmlns:rdf="http://www.w3.org/1999/02/22-rdf-syntax-ns#"
   xmlns:svg="http://www.w3.org/2000/svg"
   xmlns="http://www.w3.org/2000/svg"
   xmlns:sodipodi="http://sodipodi.sourceforge.net/DTD/sodipodi-0.dtd"
   xmlns:inkscape="http://www.inkscape.org/namespaces/inkscape"
   width="32"
   height="32"
   id="svg4535"
   version="1.1"
   inkscape:version="0.48.2 r9819"
   sodipodi:docname="New document 14">
  <defs
     id="defs4537" />
  <sodipodi:namedview
     id="base"
     pagecolor="#ffffff"
     bordercolor="#666666"
     borderopacity="1.0"
     inkscape:pageopacity="0.0"
     inkscape:pageshadow="2"
     inkscape:zoom="11.098901"
     inkscape:cx="-1.7272283"
     inkscape:cy="16.289373"
     inkscape:current-layer="layer1"
     showgrid="true"
     inkscape:grid-bbox="true"
     inkscape:document-units="px"
     inkscape:window-width="1380"
     inkscape:window-height="880"
     inkscape:window-x="235"
     inkscape:window-y="105"
     inkscape:window-maximized="0" />
  <metadata
     id="metadata4540">
    <rdf:RDF>
      <cc:Work
         rdf:about="">
        <dc:format>image/svg+xml</dc:format>
        <dc:type
           rdf:resource="http://purl.org/dc/dcmitype/StillImage" />
        <dc:title></dc:title>
      </cc:Work>
    </rdf:RDF>
  </metadata>
  <g
     id="layer1"
     inkscape:label="Layer 1"
     inkscape:groupmode="layer"
     transform="translate(0,16)">
    <path
       transform="matrix(2.4598469,0,0,1.4696409,-9.5921842,-17.238218)"
       style="fill:#0000ff;fill-opacity:1;stroke:#000000;stroke-width:0.5;stroke-linejoin:round;stroke-miterlimit:4;stroke-opacity:1"
       d="m 16.04939,14.927225 c 0.03134,3.905832 -3.031864,5.540102 -5.868201,5.540102 -2.836338,0 -5.3824787,-1.107604 -5.6484344,-4.988341 -0.073256,-1.068924 0.027309,-5.059038 2.1728766,-5.7357124 0.8314367,-0.2622204 0.6236256,-5.9963785 3.3290458,-6.2416057 1.033876,-0.093714 3.146935,0.8676556 3.24529,5.6845611 0.04013,1.965341 2.732795,1.176312 2.769423,5.740996 z"
       id="path5053"
       inkscape:connector-curvature="0"
       sodipodi:nodetypes="sssssss" />
    <path
       sodipodi:type="arc"
       style="fill:#000003;fill-opacity:1;stroke:#000000;stroke-width:0.5;stroke-linejoin:round;stroke-miterlimit:4;stroke-opacity:1;stroke-dasharray:none"
       id="path5064"
       sodipodi:cx="12.568812"
       sodipodi:cy="9.7004948"
       sodipodi:rx="0.49554455"
       sodipodi:ry="1.4866337"
       d="m 13.064357,9.7004948 a 0.49554455,1.4866337 0 1 1 -0.991089,0 0.49554455,1.4866337 0 1 1 0.991089,0 z"
       transform="translate(0.27029703,-15.819802)" />
    <path
       transform="translate(4.2346535,-15.729703)"
       d="m 13.064357,9.7004948 a 0.49554455,1.4866337 0 1 1 -0.991089,0 0.49554455,1.4866337 0 1 1 0.991089,0 z"
       sodipodi:ry="1.4866337"
       sodipodi:rx="0.49554455"
       sodipodi:cy="9.7004948"
       sodipodi:cx="12.568812"
       id="path5066"
       style="fill:#000003;fill-opacity:1;stroke:#000000;stroke-width:0.5;stroke-linejoin:round;stroke-miterlimit:4;stroke-opacity:1;stroke-dasharray:none"
       sodipodi:type="arc" />
  </g>
</svg>
